<svg xmlns:xlink="http://www.w3.org/1999/xlink" class="mobileSVG absolute top-0   block md:hidden overflow-visible" height="1809" viewBox="0 0 342 1809" fill="none" xmlns="http://www.w3.org/2000/svg" width="342" ><g id="Group 77" fill="none"><path id="mainPath2" d="M332 7V83C332 94.0457 323.046 103 312 103H26C14.9543 103 6 111.954 6 123V282C6 293.046 14.9543 302 26 302H312C323.046 302 332 310.954 332 322V482C332 493.046 323.046 502 312 502H26C14.9543 502 6 510.954 6 522V681C6 692.046 14.9543 701 26 701H312C323.046 701 332 709.954 332 721V881C332 892.046 323.046 901 312 901H26C14.9543 901 6 909.954 6 921V1082C6 1093.05 14.9543 1102 26 1102H312C323.046 1102 332 1110.95 332 1122V1282C332 1293.05 323.046 1302 312 1302H26C14.9543 1302 6 1310.95 6 1322V1482C6 1493.05 14.9543 1502 26 1502H312C323.046 1502 332 1510.95 332 1522V1682C332 1693.05 323.046 1702 312 1702H26C14.9543 1702 6 1710.95 6 1722V1809" stroke="#4167B3" stroke-dasharray="4 4" fill="none"></path><path id="plane2" d="M321.5 15.9828C321.702 15.0379 321.893 14.1393 322.086 13.2415C322.227 12.5855 322.378 11.9323 322.506 11.2736C322.54 11.096 322.536 10.8969 322.499 10.7186C322.187 9.22907 321.863 7.74161 321.544 6.25415C321.532 6.19678 321.525 6.13803 321.512 6.04886C322.025 6.04886 322.523 6.04264 323.02 6.05716C323.083 6.05923 323.16 6.1636 323.2 6.23756C323.729 7.21491 324.254 8.19365 324.775 9.17515C324.841 9.29957 324.91 9.36385 325.062 9.36316C326.837 9.35694 328.613 9.35901 330.388 9.35832C330.443 9.35832 330.499 9.34726 330.587 9.33828C329.691 6.3993 328.801 3.48106 327.898 0.523419C328.346 0.523419 328.767 0.521346 329.187 0.52411C329.47 0.526184 329.799 0.445313 330.021 0.569038C330.232 0.686542 330.332 1.0197 330.479 1.26024C332.085 3.89025 333.693 6.51888 335.293 9.15234C335.39 9.31132 335.493 9.36523 335.672 9.36454C337.506 9.35763 338.004 9.35763 339.837 9.36178C340.614 9.36316 341.219 9.81451 341.428 10.5285C341.747 11.6172 340.978 12.6616 339.835 12.6692C338.402 12.6788 338.304 12.6719 336.87 12.6719C336.47 12.6719 336.07 12.6816 335.67 12.6678C335.491 12.6616 335.387 12.7203 335.29 12.88C333.596 15.6669 331.894 18.4476 330.203 21.2359C330.08 21.4398 329.948 21.5054 329.725 21.5006C329.128 21.4861 328.531 21.4958 327.903 21.4958C328.802 18.5485 329.69 15.6372 330.588 12.6913C330.485 12.6837 330.408 12.6733 330.33 12.6733C328.589 12.6726 326.847 12.6754 325.105 12.6685C324.931 12.6685 324.841 12.7265 324.758 12.8841C324.252 13.8449 323.73 14.796 323.225 15.7574C323.132 15.9358 323.027 15.9959 322.836 15.9897C322.404 15.9745 321.971 15.9848 321.501 15.9848L321.5 15.9828Z" fill="#1F396C"></path><g id="Group 68" fill="none"><circle id="Ellipse 45" cx="5.99907" cy="203" r="3.47368" fill="#013572"></circle><circle id="Ellipse 46" cx="6" cy="203" r="5.75" stroke="#013572" stroke-width="0.5px" fill="none"></circle></g><g id="Group 69" fill="none"><circle id="Ellipse 45_2" cx="331.999" cy="403" r="3.47368" fill="#013572"></circle><circle id="Ellipse 46_2" cx="332" cy="403" r="5.75" stroke="#013572" stroke-width="0.5px" fill="none"></circle></g><g id="Group 70" fill="none"><circle id="Ellipse 45_3" cx="5.99907" cy="602" r="3.47368" fill="#013572"></circle><circle id="Ellipse 46_3" cx="6" cy="602" r="5.75" stroke="#013572" stroke-width="0.5px" fill="none"></circle></g><g id="Group 71" fill="none"><circle id="Ellipse 45_4" cx="331.999" cy="801" r="3.47368" fill="#013572"></circle><circle id="Ellipse 46_4" cx="332" cy="801" r="5.75" stroke="#013572" stroke-width="0.5px" fill="none"></circle></g><g id="Group 72" fill="none"><circle id="Ellipse 45_5" cx="5.99907" cy="1002" r="3.47368" fill="#013572"></circle><circle id="Ellipse 46_5" cx="6" cy="1002" r="5.75" stroke="#013572" stroke-width="0.5px" fill="none"></circle></g><g id="Group 73" fill="none"><circle id="Ellipse 45_6" cx="331.999" cy="1202" r="3.47368" fill="#013572"></circle><circle id="Ellipse 46_6" cx="332" cy="1202" r="5.75" stroke="#013572" stroke-width="0.5px" fill="none"></circle></g><g id="Group 74" fill="none"><circle id="Ellipse 45_7" cx="5.99907" cy="1402" r="3.47368" fill="#013572"></circle><circle id="Ellipse 46_7" cx="6" cy="1402" r="5.75" stroke="#013572" stroke-width="0.5px" fill="none"></circle></g><g id="Group 75" fill="none"><circle id="Ellipse 45_8" cx="331.999" cy="1602" r="3.47368" fill="#013572"></circle><circle id="Ellipse 46_8" cx="332" cy="1602" r="5.75" stroke="#013572" stroke-width="0.5px" fill="none"></circle></g><g id="Group 76" fill="none"><circle id="Ellipse 45_9" cx="5.99907" cy="1802" r="3.47368" fill="#013572"></circle><circle id="Ellipse 46_9" cx="6" cy="1802" r="5.75" stroke="#013572" stroke-width="0.5px" fill="none"></circle></g></g></svg>