<?xml version="1.0" encoding="utf-8"?>
<!-- Generator: Adobe Illustrator 27.7.0, SVG Export Plug-In . SVG Version: 6.00 Build 0)  -->
<svg version="1.1" id="Layer_1" xmlns="http://www.w3.org/2000/svg" xmlns:xlink="http://www.w3.org/1999/xlink" x="0px" y="0px"
	 viewBox="0 0 98.8 66.7" style="enable-background:new 0 0 98.8 66.7;" xml:space="preserve">
<style type="text/css">
	.st0{fill:url(#SVGID_1_);}
	.st1{fill:#FFFFFF;}
	.st2{fill:url(#SVGID_00000024719506987363344860000012316494953183090876_);}
	.st3{fill:url(#SVGID_00000147910014652256062980000011546384401439780239_);}
	.st4{fill:url(#SVGID_00000130612994948855205210000007095765682955150517_);}
	.st5{fill:url(#SVGID_00000053514271267958182850000014789339134404708267_);}
	.st6{fill:url(#SVGID_00000170994252881031832150000003474336191400706708_);}
	.st7{fill:url(#SVGID_00000083069451975949031540000018386450771532927122_);}
	.st8{fill:url(#SVGID_00000100367507375222673580000001591555679520342691_);}
	.st9{fill:#231F20;}
	.st10{fill:url(#SVGID_00000059285284502446293880000001678107247376194467_);}
	.st11{fill:none;}
	.st12{fill:url(#SVGID_00000153664772144777094640000001374775359641545404_);}
	.st13{fill:url(#SVGID_00000115490464425872763220000014050851975700929201_);}
	.st14{fill:url(#SVGID_00000031185584927264058450000014756786683570615426_);}
	.st15{fill:url(#SVGID_00000048468254735169521020000000113987196143660426_);}
	.st16{fill:url(#SVGID_00000170271186405191746420000004072409620270972561_);}
	.st17{fill:url(#SVGID_00000099647729247960687180000005070973110875240839_);}
	.st18{fill:url(#SVGID_00000113351635423475626760000009787582761720019385_);}
	.st19{fill:url(#SVGID_00000039119831974351099970000000118227088057602725_);}
	.st20{fill:url(#SVGID_00000140736741290762263390000010257328018027163024_);}
	.st21{fill:url(#SVGID_00000183934057315163529970000010166335671512312449_);}
	.st22{fill:url(#SVGID_00000154427801412988240250000005591775572419347612_);}
	.st23{fill:url(#SVGID_00000183208163231048434570000004887223355548897177_);}
	.st24{fill:url(#SVGID_00000007403264826979617550000010552240867045855372_);}
	.st25{fill:url(#SVGID_00000036952216926431328470000010888021660423963070_);}
	.st26{fill:url(#SVGID_00000116917331796214469680000013370958236100412817_);}
	.st27{fill:url(#SVGID_00000070116902598534196550000012546526382762446752_);}
	.st28{fill:url(#SVGID_00000103960528022427307930000011580554237096890284_);}
	.st29{fill:url(#SVGID_00000137810525876893027340000016707647810616341897_);}
	.st30{fill:url(#SVGID_00000057114639732256853060000009220778512992806334_);}
	.st31{fill:url(#SVGID_00000050630604781444640960000016318508711080138880_);}
	.st32{fill:url(#SVGID_00000134235874969991323590000001437373888276667047_);}
	.st33{fill:url(#SVGID_00000183936279296298057340000013176502578044011965_);}
	.st34{fill:url(#SVGID_00000063629382228500543910000003028354186869051321_);}
	.st35{fill:url(#SVGID_00000008842197755692941820000006816652766671973505_);}
	.st36{fill:url(#SVGID_00000103978932860949233190000005640209780535210160_);}
	.st37{fill:url(#SVGID_00000062875928767900482200000007737081823068573606_);}
	.st38{fill:url(#SVGID_00000161613454474817017620000013535727244281402032_);}
	.st39{fill:url(#SVGID_00000093888329007464658590000000244028280711511991_);}
	.st40{fill:url(#SVGID_00000038396632884553399680000004042402133278413716_);}
	.st41{fill:#064295;}
</style>
<g>
	<path class="st41" d="M67.4,56.4c-0.1,5.4-5.6,7.6-9.6,5.3c-0.2-0.1-0.4-0.2-0.5-0.3c-0.5-0.3-0.7-0.3-0.8,0.4
		c-0.8,4-4.9,6.1-8.7,4.3c-1.4-0.7-2.5-1.1-4.1-0.1c-1.9,1.2-4.1,0.6-5.8-0.9c-1.2-1.1-2.4-2.3-2.7-4c-0.1-0.5-0.4-0.4-0.7-0.3
		c-3.4,0.6-6.8-1.5-7.8-4.9c-0.2-0.7-0.4-0.7-1-0.6c-1.9,0.4-3.6-0.1-5.1-1.4c-1.6-1.5-2.9-3.1-2.6-5.4c0-0.2,0-0.5,0.1-0.7
		c0.3-0.7,0.1-0.9-0.6-1.1c-2.3-0.7-3.9-2.3-4.8-4.4c-0.8-2-0.4-3.9,1-5.4c0.5-0.6,0.4-0.8-0.2-1.1c-2.1-1-2.1-1.1-2.9,1.2
		c-0.3,0.9-0.6,1.8-1,2.7c-0.4,1-1.1,1.4-2.1,1.1c-2.2-0.7-4.3-1.4-6.5-2.2c-0.9-0.3-1.3-1.2-1-2.1c0.3-0.8,1.2-1.3,2.1-1
		c1.4,0.4,2.8,0.9,4.2,1.4c0.5,0.2,0.8,0.1,1-0.4c3-8.7,6-17.4,9.1-26c0.3-0.7-0.2-0.8-0.6-1c-4.7-2-9.3-3.9-14-5.9
		C1.6,3.3,1.2,3.2,1,3C0.3,2.5,0,1.8,0.4,1c0.4-0.8,1-1.2,1.9-0.9C3.2,0.4,4,0.8,4.9,1.2C9.5,3.1,14.1,5,18.6,6.9
		c1.7,0.7,2,1.1,1.5,2.9c-0.2,0.6,0.2,0.6,0.5,0.7c2.7,0.5,5.4,1.1,8,1.6c0.4,0.1,0.7,0.1,1.1,0.2c1,0.3,1.6,1.1,1.4,1.9
		c-0.2,0.9-1.1,1.5-2.1,1.3c-2.4-0.5-4.9-1-7.3-1.5c-0.9-0.2-2-0.7-2.8-0.4c-0.7,0.3-0.8,1.7-1.1,2.5c-1.7,4.8-3.4,9.6-5.1,14.4
		c-0.2,0.7-0.2,1.1,0.5,1.3c0.5,0.2,0.9,0.4,1.4,0.7c1.2,0.7,2.3,1.1,3.9,0.5c3.2-1.1,7.1,1.7,7.7,5.2c0.1,0.8,0.4,1.1,1.3,1
		c2.9-0.2,6.1,2.5,6.5,5.5c0.1,0.9,0.4,1.2,1.4,1.2c2.6-0.2,6.1,3.3,6.2,5.8c0,0.7,0.3,0.8,0.9,0.8c4.9,0,8,5.3,5.6,9.5
		c-0.1,0.2-0.3,0.3-0.1,0.6c0.8,0.8,2.8,1,4,0.3c1-0.6,1.5-2,1.1-3.2c-0.1-0.3-0.3-0.6-0.4-0.8c-0.5-0.7-0.5-1.4,0.1-2.1
		c0.6-0.6,1.3-0.8,2.1-0.4c1.5,0.8,3,1.5,4.4,2.3c0.7,0.4,1.5,0.6,2.4,0.5c1.1-0.2,2-1,2.2-2c0.3-1.2-0.1-2.2-1.1-2.9
		c-1.2-0.8-2.4-1.7-3.6-2.5c-0.9-0.7-1.2-1.6-0.7-2.4c0.5-0.8,1.4-1,2.4-0.4c2.7,1.5,5.4,2.9,8.1,4.4c1,0.5,2,0.6,2.9-0.1
		c1-0.6,1.5-1.6,1.4-2.8c0-0.9-0.5-1.6-1.3-2.1c-1.7-1.1-3.4-2.2-5.2-3.4c-1-0.7-1.3-1.6-0.8-2.4c0.5-0.9,1.4-1,2.5-0.5
		c3.6,1.8,7.1,3.5,10.7,5.3c1.9,0.9,4-0.1,4.2-2.2c0.2-1.3-0.4-2.3-1.5-3c-3.4-1.9-6.8-3.6-10.1-5.6c-5.1-3-10.1-6.2-15.2-9.4
		c-0.9-0.6-1.1-1.5-0.7-2.3c0.5-0.9,1.5-1,2.5-0.4c4.5,2.8,9,5.7,13.6,8.4c3,1.8,6.1,3.4,9.1,5.1c0.5,0.3,0.7,0.3,0.8-0.4
		c0.1-0.8,0.3-1.6,0.3-2.4c0-1.1,0.5-1.7,1.5-2.1c1.7-0.7,1.7-0.7,1-2.5c-1.9-5.5-3.9-11-5.8-16.5c-0.3-0.8-0.6-1-1.4-0.7
		c-1.5,0.5-3.1,0.8-4.6,1.3c-0.9,0.3-1.6,0.1-2.1-0.5c-0.6-0.7-1.4-1-2.2-1.1c-5.1-1-10.2-2.1-15.4-2.8c-1.8-0.3-3.4-0.1-5,0.9
		c-3.9,2.3-7.7,4.9-11.5,7.5c-0.3,0.2-0.5,0.4-0.5,0.7c-0.7,3.1-1.9,6-2.9,8.9c-0.2,0.7-0.1,1,0.5,1.3c2.5,1.5,5.5,0.6,6.8-2
		c0.7-1.3,1.2-2.7,1.6-4.1c0.2-0.9,0.8-1.3,1.7-1.5c2.2-0.4,4.5-0.9,6.7-1.4c1.3-0.3,2.2,0.2,2.4,1.2c0.2,1-0.4,1.7-1.7,2
		c-1.8,0.4-3.6,0.8-5.4,1.2c-0.6,0.1-0.9,0.4-1,0.9c-0.4,1.2-0.9,2.4-1.5,3.5c-2.6,4.7-9.1,5.8-13.4,1.2c-0.6-0.6-0.5-1.4-0.2-2.1
		c1-3,2.2-5.9,2.9-8.9c0.5-2.2,1.6-3.5,3.4-4.6c3.2-2,6.3-4.1,9.4-6.2c2.8-1.9,5.8-2.3,9.1-1.8c5.4,0.9,10.8,1.9,16.1,3.1
		c0.3,0.1,0.7,0.1,0.9,0.4c0.8,1,1.8,0.7,2.8,0.4c0.8-0.3,1.6-0.5,2.5-0.7c0.5-0.1,0.7-0.3,0.5-0.8c-0.4-1.4-0.1-1.9,1.2-2.5
		C84.6,4.9,90.3,2.6,96,0.3c1.1-0.4,1.9-0.1,2.3,0.8c0.4,0.9,0,1.8-1.1,2.3c-5,2-10.1,4.1-15.1,6c-0.8,0.3-1,0.6-0.7,1.4
		c3,8.3,5.9,16.7,8.8,25.1c0.3,1,0.7,1.1,1.6,0.7c1.5-0.7,3-1.2,4.5-1.7c1.1-0.4,2.1,0,2.4,0.9c0.3,0.9-0.1,1.8-1.2,2.2
		c-2.4,0.9-4.8,1.8-7.2,2.7c-1.1,0.4-1.9,0-2.3-1.1c-0.4-1-0.7-2.1-1.1-3.1c-0.1-0.2,0-0.6-0.5-0.5c-0.3,0.1-0.7,0.2-0.7,0.6
		c-0.2,1.2-0.4,2.4-0.7,3.6c-0.1,0.5,0.3,0.7,0.5,0.9c1.6,2.1,1.9,4.8,0.7,7c-1.3,2.3-3.6,3.5-6.2,3.2c-0.9-0.1-1.8-0.5-2.6-0.9
		c-0.4-0.2-0.6-0.2-0.6,0.3c0.3,4.3-4.6,8.3-9.2,5.8C67.6,56.4,67.6,56.4,67.4,56.4z M21.3,48.8c0,1,0.6,1.8,1.8,2.7
		c0.9,0.7,2,0.7,2.8,0c1.5-1.4,3-2.9,4.4-4.4c0.8-0.9,0.8-2,0-2.9c-0.3-0.4-0.7-0.7-1-1c-1.1-1-2.2-1-3.3,0c-1.4,1.3-2.7,2.6-4,4
		C21.6,47.7,21.3,48.2,21.3,48.8z M35.2,49.1c-0.6,0-1,0.2-1.4,0.5c-1.2,1.1-2.3,2.2-3.4,3.4c-0.8,0.8-0.7,1.9,0,2.8
		c0.3,0.4,0.7,0.7,1,1c1.1,1,2.2,1.1,3.3,0c0.9-0.9,1.8-1.8,2.7-2.7c1-1,1.3-1.8,0.8-2.7C37.5,50.4,36.7,49.3,35.2,49.1z M18.8,43.5
		c0.5,0,1-0.1,1.4-0.4c0.9-0.8,1.8-1.6,2.5-2.5c0.7-0.8,0.6-1.8-0.1-2.6c-0.3-0.4-0.7-0.8-1.1-1.2c-1-0.9-2.1-0.9-3,0
		c-0.6,0.5-1.2,1.2-1.8,1.7c-0.8,0.8-1.4,1.6-0.8,2.7C16.5,42.3,17.4,43.3,18.8,43.5z M45.9,59c0-1.3-0.9-1.9-1.7-2.7
		c-0.9-0.8-2-0.8-3,0c-0.6,0.5-1.2,1.2-1.8,1.7c-0.8,0.7-1.4,1.6-0.8,2.7c0.6,1.2,1.4,2.3,3,2.4C42.9,63.2,45.8,60.4,45.9,59z"/>
</g>
</svg>
