<?xml version="1.0" encoding="utf-8"?>
<!-- Generator: Adobe Illustrator 27.7.0, SVG Export Plug-In . SVG Version: 6.00 Build 0)  -->
<svg version="1.1" id="Layer_1" xmlns="http://www.w3.org/2000/svg" xmlns:xlink="http://www.w3.org/1999/xlink" x="0px" y="0px"
	 viewBox="0 0 88.4 88.3" style="enable-background:new 0 0 88.4 88.3;" xml:space="preserve">
<style type="text/css">
	.st0{fill:url(#SVGID_1_);}
	.st1{fill:#FFFFFF;}
	.st2{fill:url(#SVGID_00000165947925854824341790000015554040192705262245_);}
	.st3{fill:url(#SVGID_00000021833539788562177120000011319127568639433131_);}
	.st4{fill:url(#SVGID_00000131339754848601291210000002801070771974120348_);}
	.st5{fill:url(#SVGID_00000137124376343861297360000006765549137989863555_);}
	.st6{fill:url(#SVGID_00000155839157469208585990000014510403473980272528_);}
	.st7{fill:url(#SVGID_00000111888533078270005940000010064014111814293676_);}
	.st8{fill:url(#SVGID_00000120547391173146964500000004588410728151086476_);}
	.st9{fill:#231F20;}
	.st10{fill:url(#SVGID_00000100373230002980985410000016066280479465517443_);}
	.st11{fill:none;}
	.st12{fill:url(#SVGID_00000145758624023491198100000001985142754710731440_);}
	.st13{fill:url(#SVGID_00000181780198408367577290000008861364019921845942_);}
	.st14{fill:url(#SVGID_00000169525620519910242590000004976309939216360889_);}
	.st15{fill:url(#SVGID_00000164510414056270308760000002244949855742552229_);}
	.st16{fill:url(#SVGID_00000139268913221637638360000011712443830940575162_);}
	.st17{fill:url(#SVGID_00000045595474136995335270000013783485464625198475_);}
	.st18{fill:url(#SVGID_00000121245148412560296510000001207459288385219725_);}
	.st19{fill:url(#SVGID_00000147209076910965273120000012269715346075450022_);}
	.st20{fill:url(#SVGID_00000047057697138955716020000009527733565086866583_);}
	.st21{fill:url(#SVGID_00000044862041294810147460000008218110861440684734_);}
	.st22{fill:url(#SVGID_00000173126844462560069050000017911973074450423984_);}
	.st23{fill:url(#SVGID_00000088830542639865472410000000238229869997849481_);}
	.st24{fill:url(#SVGID_00000088845192326100714180000016211579899782514862_);}
	.st25{fill:url(#SVGID_00000138563682124029451590000000474387441578868402_);}
	.st26{fill:url(#SVGID_00000152946727660948240630000006811557998747629191_);}
	.st27{fill:url(#SVGID_00000181058894800431415770000012959676168814718632_);}
	.st28{fill:url(#SVGID_00000062881868997147838980000010593480292547981204_);}
	.st29{fill:url(#SVGID_00000021804218883856604200000003454388650471599488_);}
	.st30{fill:url(#SVGID_00000016759476072544840790000008182465007271355790_);}
	.st31{fill:url(#SVGID_00000078765781106980437040000007868603633821206409_);}
	.st32{fill:url(#SVGID_00000076572745186759178000000016803405977156746644_);}
	.st33{fill:url(#SVGID_00000029021808111134738040000008683901548514793348_);}
	.st34{fill:url(#SVGID_00000028295094107075159590000013339264042987312263_);}
	.st35{fill:url(#SVGID_00000136410776808479637280000016363978455439245953_);}
	.st36{fill:url(#SVGID_00000070085658198672924290000002944345043419871909_);}
	.st37{fill:url(#SVGID_00000128449044724297752060000016919548559849413516_);}
	.st38{fill:url(#SVGID_00000141427754310576309650000015558730249767286954_);}
	.st39{fill:url(#SVGID_00000090278564125093768310000001075865531585994898_);}
	.st40{fill:url(#SVGID_00000048481312362132039100000018301934138984178329_);}
	.st41{fill:#064295;}
</style>
<g>
	<path class="st41" d="M3.8,88.3c-1.2-0.5-2.4-1.1-3.1-2.3c-0.3-0.7-0.7-1.4-0.7-2.2C0,76.7,0,69.6,0,62.5C0,60,2.1,58.1,4.5,58
		c3-0.1,5.9-0.1,8.9,0c1.4,0,2.8,0.4,3.8,1.5c0.2,0.2,0.6,0.2,0.9,0.2c0.7-0.2,1.6-0.3,1.9-0.7c0.3-0.4-0.2-1.3-0.3-1.9
		c-0.5-2.2-0.9-4.3-1.1-6.5c-0.3-4.9,0.6-9.6,2.6-14c1.3-2.9,2.9-5.5,5-7.7c4-4.2,8.1-8.3,12.2-12.4c0.5-0.5,0.6-1,0.4-1.6
		c-1.1-3-2.1-6.1-3.2-9.1c-0.5-1.3-0.2-2.7,0.9-3.5c1.3-0.9,2.2-1,3.7-0.2c0.7,0.4,1.2,1.1,2,0.8c0.7-0.2,1.2-0.7,1.8-1.2
		c1.6-1.1,3.2-1.6,5.2-1.5c2,0.1,3.6,1,5.1,2.2C55.3,2.9,56,2.9,57,2.1c1.5-1.2,3.2-1.1,4.5,0.3c1,1,0.8,2.2,0.4,3.4
		c-0.8,2.4-1.7,4.8-2.5,7.2c-0.1,0.2-0.1,0.3-0.2,0.5c-1,1.5-0.5,2.6,0.8,3.8c2.8,2.6,5.4,5.3,8.1,8c0.5,0.5,0.9,1.7,0.5,2.2
		c-0.5,0.7-1.1,1.1-2,0.9c-0.3-0.1-0.6-0.3-0.8-0.5c-3.2-3.2-6.5-6.5-9.7-9.7c-0.3-0.3-0.9-0.5-1.3-0.5c-4,0-7.9,0-11.9,0
		c-0.6,0-1,0.2-1.4,0.6c-4.2,4.2-8.5,8.4-12.6,12.7C26.6,33.2,25,36,23.8,39c-1,2.6-1.5,5.3-1.8,8.1c-0.3,3.6,0.3,6.9,1.4,10.3
		c0,0.1,0.1,0.1,0.1,0.2c1.1-0.4,2.2-0.8,3.4-1c0.9-0.2,1.9-0.5,2.8-0.5c4.6-0.3,9,0.3,13.2,2.5c3.6,1.9,7.4,3.5,11.1,5.3
		c2.7,1.3,3.9,3.5,3.8,6.5c0,0.2-0.1,0.5,0,0.9c0.7-0.5,1.5-0.9,2.1-1.5c2.1-1.8,4.2-3.7,6.3-5.6c2.4-2.1,4.8-4.3,7.3-6.4
		c1-0.9,1.1-2.1,1.4-3.3c0.3-1.8,0.7-3.6,0.7-5.3c0-1.9-0.3-3.9-0.6-5.8c-0.2-1.1-0.6-2.3-0.9-3.4c-0.2-0.8,0.2-1.9,0.9-2.2
		c1-0.3,2.1,0.1,2.4,1.1c0.5,2,1.1,4,1.3,6c0.3,2.2,0.2,4.4,0.2,6.6c0,0.6-0.1,1.2-0.2,1.8c2.5-0.9,4.8-0.9,6.9,0.7
		c1.4,1,2.2,2.3,2.6,3.8c0,0.1,0.1,0.2,0.2,0.3c0,0.8,0,1.6,0,2.4c-0.3,0.7-0.5,1.5-1,2.1c-0.7,1-1.6,1.8-2.5,2.7c-2,2-4,3.9-6,5.8
		c-2.7,2.6-5.4,5.3-8.1,7.9c-2.1,2.1-4.4,4.1-7,5.6c-2.4,1.3-4.8,2.4-7.5,2.9c-1.1,0.2-2.3,0.5-3.4,0.7
		C36.6,88.3,20.2,88.3,3.8,88.3z M18.4,84.9c0.1,0,0.2,0,0.3,0c10.6,0,21.2,0,31.9,0c1.7,0,3.4-0.2,5.1-0.6c4.6-1,8.5-3.4,11.8-6.6
		c1.9-1.8,3.8-3.7,5.7-5.5c2.1-2.1,4.2-4.1,6.4-6.2c1.4-1.4,2.9-2.8,4.2-4.2c0.5-0.5,0.8-1.2,1-1.9c0.3-1.3-0.2-2.4-1.5-3.1
		c-0.9-0.5-2.6-0.5-3.4,0.1c-0.9,0.7-1.7,1.5-2.6,2.2c-2,1.8-4.1,3.6-6.1,5.4c-2.6,2.3-5.2,4.5-7.6,6.8c-2.6,2.4-5.5,4.2-9,4.8
		c-2,0.4-4.1,0.6-6.1-0.2c-1.6-0.7-3.3-1.1-5-1.6c-3.5-1.1-7-2.2-10.5-3.3c-0.9-0.3-1.2-1.2-1-2.1c0.4-1.3,1.2-1.4,2.4-1
		c4,1.2,8,2.6,12.1,3.8c1.6,0.5,3.3,1,4.9,1.2c1.5,0.2,2.7-0.9,3-2.5c0.3-1.2-0.4-2.8-1.6-3.3c-3.2-1.6-6.4-3.1-9.6-4.6
		c-2.6-1.2-5.2-2.6-8.1-2.9c-2.7-0.2-5.4-0.4-8,0.5c-2.5,0.9-5,1.8-7.5,2.7c-0.7,0.2-0.9,0.6-0.9,1.3c0,6.2,0,12.4,0,18.6
		C18.6,83.4,18.5,84.1,18.4,84.9z M3.5,73.1c0,3.4,0,6.8,0,10.3c0,1.1,0.5,1.5,1.6,1.5c2.8,0,5.5,0,8.3,0c1.3,0,1.9-0.6,1.9-1.9
		c0-6.6,0-13.1,0-19.7c0-1.3-0.6-1.9-1.8-1.9c-2.7,0-5.5,0-8.2,0c-1.3,0-1.7,0.5-1.7,1.8C3.5,66.4,3.5,69.8,3.5,73.1z M39.4,5.6
		c0,0.2-0.1,0.3,0,0.3c0.9,2.5,1.8,5.1,2.7,7.6c0.2,0.5,0.5,0.7,1,0.7c3.9,0,7.8,0,11.6,0c0.2,0,0.4,0,0.6,0c1-2.8,2-5.6,3-8.6
		c-0.3,0.1-0.5,0.1-0.6,0.1c-2.2,0.9-4.2,0.5-6-1.2c-1.5-1.4-4-1.7-5.6-0.2C44.1,6.1,42,6.7,39.4,5.6z"/>
	<path class="st41" d="M52.8,41c-0.9,0-1.6-0.6-1.7-1.5c-0.1-1.4-0.8-1.8-2.2-2.1c-1-0.2-2.1,0.6-2.4,1.6c-0.3,0.9,0.8,2.1,2,2.2
		c1.8,0.1,3.5,0.5,4.8,2.1c1.6,1.9,1.7,4.7,0,6.5c-0.7,0.7-1.6,1.2-2.4,1.8c-0.2,0.1-0.4,0.3-0.4,0.5c-0.2,1-0.7,1.5-1.6,1.5
		c-0.9,0-1.5-0.5-1.7-1.5c0-0.2-0.3-0.5-0.5-0.5c-2.1-0.9-3.3-2.5-3.6-4.8c-0.1-0.8,0.7-1.9,1.5-2c0.9-0.1,1.9,0.6,1.9,1.6
		c0.1,1,0.9,2,1.9,2.1c1.1,0.1,2.4-0.4,2.7-1.5c0.2-0.9-0.5-1.9-1.5-2.1c-0.7-0.1-1.4-0.2-2.1-0.3c-2.2-0.4-4.2-2.5-4.4-5
		c-0.1-1.2,0.3-2.3,1-3.2c0.7-0.9,1.5-1.6,2.6-2c0.2-0.1,0.4-0.4,0.5-0.6c0.2-0.8,0.8-1.4,1.6-1.4c0.9,0,1.5,0.6,1.7,1.4
		c0.1,0.3,0.4,0.7,0.7,0.8c2.1,0.9,3.2,2.5,3.4,4.7C54.7,40.1,53.8,41,52.8,41z"/>
	<path class="st41" d="M73.9,32.6c0,1-0.7,1.7-1.7,1.7c-0.8,0-1.8-0.9-1.7-1.7c0-0.8,0.9-1.7,1.8-1.7C73.3,30.8,73.9,31.5,73.9,32.6
		z"/>
</g>
</svg>
