<?xml version="1.0" encoding="utf-8"?>
<!-- Generator: Adobe Illustrator 27.7.0, SVG Export Plug-In . SVG Version: 6.00 Build 0)  -->
<svg version="1.1" id="Layer_1" xmlns="http://www.w3.org/2000/svg" xmlns:xlink="http://www.w3.org/1999/xlink" x="0px" y="0px"
	 viewBox="0 0 106.5 106.2" style="enable-background:new 0 0 106.5 106.2;" xml:space="preserve">
<style type="text/css">
	.st0{fill:url(#SVGID_1_);}
	.st1{fill:#FFFFFF;}
	.st2{fill:url(#SVGID_00000070092628758385895290000001236717502509338025_);}
	.st3{fill:url(#SVGID_00000032647780937287454620000006449279381817107119_);}
	.st4{fill:url(#SVGID_00000084488697404470593100000016745530415255776395_);}
	.st5{fill:url(#SVGID_00000077319039355050785720000011080200795234602131_);}
	.st6{fill:url(#SVGID_00000021832739212670231070000002665044933999649194_);}
	.st7{fill:url(#SVGID_00000169542253345807249370000014716341709625146283_);}
	.st8{fill:url(#SVGID_00000075135917573857324910000017691964424951382203_);}
	.st9{fill:#231F20;}
	.st10{fill:url(#SVGID_00000155132722191432796620000013881506549746150542_);}
	.st11{fill:none;}
	.st12{fill:url(#SVGID_00000029749668336381482030000004606976010929236125_);}
	.st13{fill:url(#SVGID_00000149356381360893113500000007828821215097004708_);}
	.st14{fill:url(#SVGID_00000071518562244206498700000012587667105918352290_);}
	.st15{fill:url(#SVGID_00000120544092065580499730000018178807062280467645_);}
	.st16{fill:url(#SVGID_00000081619764518886046390000004688117121508034953_);}
	.st17{fill:url(#SVGID_00000041268973737557155040000010159564535472646021_);}
	.st18{fill:url(#SVGID_00000000201616167532295370000008550836164306594706_);}
	.st19{fill:url(#SVGID_00000137829542042211120680000000191137045299243436_);}
	.st20{fill:url(#SVGID_00000071531714171875741390000003701469755125854613_);}
	.st21{fill:url(#SVGID_00000060021055726863194260000011985102818688527259_);}
	.st22{fill:url(#SVGID_00000155141318656653194830000003171913742577118850_);}
	.st23{fill:url(#SVGID_00000112594284110118213850000013649309507810419848_);}
	.st24{fill:url(#SVGID_00000038403625884298249370000015812938433251904434_);}
	.st25{fill:url(#SVGID_00000093880265713677542470000013443602252036919454_);}
	.st26{fill:url(#SVGID_00000133487869556089867750000018100848765456293514_);}
	.st27{fill:url(#SVGID_00000155841807408485957850000013314559640667506583_);}
	.st28{fill:url(#SVGID_00000008866885730591930380000002450543539189306511_);}
	.st29{fill:url(#SVGID_00000078012481299770754040000017747693579385326762_);}
	.st30{fill:url(#SVGID_00000060711540165275706890000013541366315953712795_);}
	.st31{fill:url(#SVGID_00000012462489040395454360000001399973753075947405_);}
	.st32{fill:url(#SVGID_00000106844018152604486590000004912318936416358838_);}
	.st33{fill:url(#SVGID_00000059282275092381512350000010162013614997773494_);}
	.st34{fill:url(#SVGID_00000142896559897066918170000013470934380340984990_);}
	.st35{fill:url(#SVGID_00000066513492014012308380000002868938073771064465_);}
	.st36{fill:url(#SVGID_00000101099663166153212000000012419192768948028331_);}
	.st37{fill:url(#SVGID_00000112627024050553472940000016597259328109298605_);}
	.st38{fill:url(#SVGID_00000002358861362108685800000010024050787708853176_);}
	.st39{fill:url(#SVGID_00000035490841320867974160000005401395511461725104_);}
	.st40{fill:url(#SVGID_00000033338582653434337740000016956390870944443548_);}
	.st41{fill:#064295;}
</style>
<g>
	<path class="st41" d="M70.5,85c0.9-1.9,1.8-3.9,2.8-5.9c1.6-3.4,3.2-6.9,4.9-10.3c0.3-0.6,0.9-1.2,1.4-1.6
		c3.8-2.2,7.6-4.5,11.5-6.6c1.2-0.6,1.5-1.4,1.7-2.5c0.8-4.9,1.7-9.7,2.7-14.6c0.1-0.7,0.7-1.5,1.2-2c1.3-1.1,2.7-2.1,4-3.2
		c0.3-0.3,0.6-0.7,0.7-1.2c0.6-4.7,1.1-9.4,1.6-14.1c0.1-1.3,0.9-2.1,1.9-2c1.1,0.1,1.7,1,1.6,2.4c-0.6,5-1.1,10-1.7,15
		c-0.1,0.7-0.5,1.4-1,1.8c-1.3,1.2-2.8,2.2-4.1,3.3c-0.4,0.3-0.7,0.9-0.8,1.3c-1.6,8.5-3.1,17-4.6,25.4c-0.2,1.3-0.9,2-1.9,1.9
		c-1-0.1-1.6-0.9-1.7-2.2c0-1.7,0-3.4,0-5.4c-2,1.1-3.7,2.3-5.5,3.1c-2.8,1.3-4.5,3.3-5.7,6.1c-2.6,6-5.5,12-8.3,17.9
		c-0.1,0.1-0.1,0.3-0.2,0.4c-0.4,0.9-1,1.4-2,1.2c-0.9-0.2-1.4-0.9-1.4-2.1c0-0.8,0.1-1.6,0.1-2.4c0-0.1-0.1-0.1-0.1-0.3
		c-2.6,0.5-5.2,1.1-7.8,1.6c-7.2,1.5-14.4,3-21.6,4.5c-0.8,0.2-1.4,0.5-1.8,1.2c-1.3,2.1-2.7,4.1-4.2,6.4c0.6,0,1.1,0,1.5,0
		c23.5,0,46.9,0,70.4,0c0.4,0,0.8,0,1.2,0c0.9,0.1,1.6,0.9,1.5,1.8c-0.1,0.9-0.6,1.5-1.5,1.7c-0.3,0.1-0.7,0-1,0
		c-31.3,0-62.7,0-94,0c-0.2,0-0.4,0-0.7,0c-1.1-0.1-1.9-0.8-1.9-1.8c0-0.9,0.8-1.7,1.8-1.7c1.4,0,2.8,0,4.2,0c0.3,0,0.5,0,1-0.1
		c-2.6-3.4-1.8-7-0.7-10.5c0.2-0.7,0.3-1.4,0.5-2c1.9-7.4,3.8-14.8,5.7-22.2c0.2-0.8,0.5-1.5,1.4-1.7c1.4-0.3,2.4,0.9,2,2.4
		c-1.2,4.6-2.4,9.1-3.5,13.7c-1.2,4.5-2.3,9-3.5,13.6c-0.9,3.7,1.5,6.8,5.4,6.8c1.7,0,3.3,0,5,0c0.8,0,1.2-0.3,1.6-0.9
		c1.8-2.8,3.8-5.6,5.6-8.5c0.5-0.8,1.1-1.2,2-1.4c2.8-0.6,5.7-1.2,8.6-1.8c-0.2-0.3-0.3-0.5-0.5-0.6c-2.7-2.8-3.3-6-2.1-9.6
		c1.3-3.7,2.7-7.4,4-11.1c0.1-0.4,0.3-0.8,0.5-1.4c-2-0.1-4-0.2-5.9-0.3c-1.7-0.1-3.3-0.1-5-0.3c-0.8-0.1-1.1,0.2-1.3,0.9
		c-3.4,9.7-6.8,19.5-10.2,29.2c-0.1,0.3-0.2,0.6-0.3,0.8c-0.4,1.1-1.3,1.6-2.3,1.2c-0.9-0.3-1.4-1.3-1-2.4c0.3-0.8,0.6-1.7,0.9-2.5
		c3.1-8.8,6.1-17.7,9.2-26.5c0.1-0.3,0.2-0.6,0.3-1c-0.3-0.1-0.6-0.2-1-0.3c-5.4-1.4-8.7-6.7-7.7-12.1c1-5.6,2-11.2,2.9-16.9
		c0-0.1,0-0.3,0-0.6c-2,0.6-3.9,1.3-5.8,1.8c-1.8,0.4-2.6,1.3-2.9,3.1c-0.6,3.1-1.5,6.2-2.4,9.3c-0.6,2.1-2.1,3.4-4.3,3.7
		c-2.3,0.3-4.1-0.5-5.3-2.5c-0.7-1.2-1-2.4-0.6-3.8c1.2-4.8,2.4-9.6,3.6-14.3c0.4-1.4,1.2-2.6,2.5-3.2c4.8-2.2,9.7-4.4,14.5-6.4
		c3.3-1.4,6.7-1.2,10.1-0.9c5,0.5,9.9,0.9,14.9,1.3c1.5,0.1,2.7,0.6,3.8,1.5c2.2,1.8,4.4,3.6,6.5,5.5c0.7,0.6,1.2,0.7,2.1,0.2
		c2-1.2,4.1-2.3,6.2-3.4c0.9-0.5,1.8-0.9,2.8-1.4c0-0.3,0-0.8,0-1.2c0-7.7,0-15.5,0-23.2c0-0.3,0-0.7,0-1c0.1-1,0.8-1.7,1.7-1.7
		c0.9,0,1.7,0.7,1.8,1.8c0,1.4,0,2.7,0,4.1c0,2.7,0,5.4,0,8.2c5.6,0,11,0,16.6,0c-0.7-1.4-1.3-2.7-2-4c-0.5-0.9-0.5-1.6,0-2.5
		c0.7-1.3,1.3-2.6,2-4.1c-0.6,0-1,0-1.4,0c-3.2,0-6.4,0-9.6,0c-1.3,0-2.1-0.7-2.1-1.8c0-1,0.8-1.7,2-1.7c4.5,0,9,0,13.5,0
		c1.8,0,2.5,1.2,1.7,2.8c-0.8,1.8-1.8,3.5-2.6,5.3c-0.2,0.4-0.2,1.1,0,1.5c0.8,1.7,1.7,3.4,2.5,5.2c0.8,1.7,0.1,2.9-1.8,2.9
		c-5.9,0-11.8,0-17.7,0c-0.4,0-0.8,0-1.3,0c0,2.9,0,5.8,0,8.6c0,1,0.2,1.7,1,2.4c2.4,2.1,2.3,6-0.2,7.9c-0.6,0.5-0.8,1-0.8,1.8
		c0,6.4,0,12.8,0,19.1c0,0.3,0,0.7,0,1c-0.1,1-0.9,1.7-1.8,1.6c-1-0.1-1.5-0.6-1.7-1.6c0-0.3,0-0.7,0-1c0-5.7,0-11.4,0-17
		c0-0.4,0-0.8,0-1.4c-1.8,1-3.3,1.8-4.9,2.7c-1.2,0.6-2.3,1.3-3.5,1.9c-1.7,0.8-3.4,0.7-5-0.2c-1.9-1.1-3.7-2.3-5.5-3.4
		c-1.2-0.8-1.5-1.7-1-2.6c0.6-0.9,1.6-1,2.8-0.3c1.7,1,3.4,2.1,5.1,3.1c0.9,0.6,1.6,0.6,2.6,0.1c3.6-2,7.3-4,10.9-6
		c1.2-0.7,1.6-1.7,1-2.6c-0.5-1-1.6-1.2-2.8-0.5c-2.9,1.6-5.8,3.1-8.6,4.7c-1.3,0.7-1.8,0.7-3-0.3c-2.6-2.2-5.2-4.4-7.8-6.5
		c-0.5-0.4-1.2-0.7-1.9-0.8c-5.8-0.5-11.6-1-17.4-1.5c-2.5-0.2-5,0.2-7.3,1.3c-4.1,1.8-8.3,3.7-12.4,5.5c-0.8,0.4-1.3,0.9-1.6,1.8
		c-1.1,4.5-2.3,8.9-3.4,13.4c-0.3,1.2,0.2,2.1,1.2,2.4c1,0.3,2-0.3,2.3-1.5c1-3.8,2-7.6,2.9-11.3c0.3-1.2,0.9-1.9,2.2-2.3
		c3.5-1,7-2.2,10.5-3.3c1.9-0.6,3,0.4,2.6,2.3c-1.2,6.5-2.3,13.1-3.4,19.6c-0.8,4.7,2.3,8.5,7.1,8.7c5.2,0.2,10.4,0.5,15.6,0.7
		c2,0.1,2.7,1.1,2,2.9c-1.7,4.7-3.4,9.4-5.1,14.1c-1.4,4,1,7.7,5.2,7.4c2.9-0.2,5.8-0.8,8.7-1.4c3-0.6,5.9-1.3,8.9-1.9
		C68.8,85.1,69.6,85.1,70.5,85z"/>
	<path class="st41" d="M44.4,52.9c1.7,0.3,3.3,0.6,5,0.8c2.4,0.4,4.9,0.8,7.3,1.2c4.5,0.7,7.1,5.7,5.1,9.8
		c-3.2,6.4-6.5,12.7-9.8,19.1c-0.5,1-1.5,1.4-2.4,0.9c-1-0.5-1.2-1.5-0.6-2.7c3.1-6,6.2-12,9.3-18c1.5-3,0.4-5.4-2.9-5.9
		c-4.3-0.7-8.7-1.4-13-2c-1.7-0.3-2.2-1.1-1.8-2.7c1.9-6.6,3.9-13.1,5.8-19.7c0.4-1.3,1.3-1.9,2.2-1.5c1,0.3,1.5,1.2,1.1,2.5
		c-1.6,5.5-3.3,11.1-4.9,16.6C44.7,51.8,44.6,52.3,44.4,52.9z"/>
	<path class="st41" d="M53.4,10.5c0,5.8-4.8,10.6-10.6,10.6c-5.8,0-10.6-4.8-10.6-10.5C32.2,4.8,37,0,42.8,0
		C48.6,0,53.3,4.8,53.4,10.5z M49.9,10.6c0-3.9-3.2-7.1-7.1-7.1c-3.9,0-7.1,3.2-7.1,7.1c0,4,3.2,7.2,7.1,7.1
		C46.7,17.7,49.9,14.5,49.9,10.6z"/>
	<path class="st41" d="M3.8,104.4c0,1-0.8,1.8-1.8,1.8c-1.1,0-1.9-0.6-2-1.6c-0.1-1,0.7-1.8,1.8-1.8C2.9,102.6,3.8,103.3,3.8,104.4z
		"/>
</g>
</svg>
