<svg xmlns="http://www.w3.org/2000/svg" viewBox="-0.004 -0.001 260.004 186.995"><g fill-opacity=".1" clip-path="url(#quotes_svg__a)"><path d="M258.72 53.53c-2.876-17.247-12.631-32.792-26.766-42.647-13.671-9.536-30.416-12.962-47.139-9.642-24.129 4.79-43.736 24.272-48.785 48.486-5.19 24.904 4.564 50.254 24.86 64.585 5.907 4.172 12.363 7.202 19.635 9.209-.239.504-.478 1.001-.71 1.498-1.829 3.831-3.552 7.449-5.683 10.699-5.583 8.506-11.751 16.751-17.588 24.477-5.703 7.542-4.972 17.184 1.73 22.924 2.926 2.504 6.231 3.753 9.986 3.753 2.173 0 4.501-.419 6.998-1.249 40.922-13.651 67.477-40.526 78.926-79.881 5.745-19.745 7.187-36.326 4.536-52.183v-.029Zm-11.287 50.19c-5.486 18.865-14.677 34.786-27.322 47.33-12.215 12.118-28.046 21.476-47.062 27.819-4.465 1.49-7.524 1.135-10.232-1.178-3.819-3.264-4.1-8.698-.689-13.204 5.907-7.811 12.152-16.169 17.863-24.86 2.405-3.654 4.226-7.485 6.16-11.544.837-1.752 1.702-3.568 2.609-5.356l2.11-4.144-4.522-.95c-8.144-1.717-15.155-4.704-21.428-9.139-17.982-12.7-26.625-35.19-22.012-57.312 4.48-21.462 21.857-38.738 43.257-42.98a56.677 56.677 0 0 1 11.069-1.1c11.013 0 21.632 3.284 30.711 9.62 12.575 8.77 21.26 22.619 23.827 37.993 2.461 14.758 1.083 30.33-4.353 49.012l.014-.007ZM95.305 9.465C81.282.469 64.327-2.228 47.555 1.859 21.357 8.252 2.32 31.147.174 58.84c-2.039 26.35 13.637 51.856 38.117 62.03 2.455 1.021 4.98 1.816 7.659 2.667.035.015.077.022.12.036-.542 1.022-1.084 2.036-1.611 3.037-2.708 5.129-5.268 9.975-8.25 14.587-3.136 4.845-6.814 9.542-10.372 14.09a501.487 501.487 0 0 0-4.17 5.378c-4.424 5.804-4.81 13.062-1 18.929 3.06 4.711 8.025 7.4 13.18 7.4 1.427 0 2.869-.206 4.29-.631 24.98-7.514 45.317-20.774 60.444-39.412 13.06-16.092 21.407-35.695 24.818-58.27 1.772-11.736 3.059-24.33.527-36.873-3.544-17.524-13.973-32.956-28.615-42.342h-.007Zm21.133 78.15c-3.263 21.604-10.887 39.54-23.306 54.844-14.424 17.765-33.074 29.904-57.013 37.106-3.544 1.064-7.391-.483-9.578-3.853-2.187-3.37-1.934-7.279.69-10.72 1.356-1.781 2.735-3.54 4.113-5.307 3.657-4.669 7.434-9.493 10.739-14.608 3.157-4.882 5.907-10.089 8.572-15.134 1.168-2.206 2.37-4.491 3.601-6.726l2.054-3.739-4.023-1.348c-1.498-.504-2.904-.943-4.24-1.369-2.638-.83-4.91-1.554-7.082-2.455-21.696-9.018-35.585-31.6-33.785-54.921 1.906-24.62 18.791-44.968 42.013-50.63 4.67-1.142 9.297-1.702 13.833-1.702 10.134 0 19.81 2.823 28.495 8.4 13.039 8.358 22.329 22.129 25.493 37.773 2.188 10.82 1.351 21.576-.583 34.389h.007Z"/></g></svg>